# AST/ASF file generated using VICON BodyLanguage
# -----------------------------------------------
:version 1.10
:name VICON
:units
  mass 1.0
  length 0.45
  angle deg
:documentation
   .ast/.asf automatically generated from VICON data using
   VICON BodyBuilder and BodyLanguage model FoxedUp or BRILLIANT.MOD
:root
   order TX TY TZ RX RY RZ
   axis XYZ
   position 0 0 0  
   orientation 0 0 0 
:bonedata
  begin
     id 1 
     name lhipjoint
     direction 0.577973 -0.728611 0.367523 
     length 2.48544 
     axis 0 0 0  XYZ
  end
  begin
     id 2 
     name lfemur
     direction 0.34202 -0.939693 0  
     length 7.1921  
     axis 0 0 20  XYZ
    dof rx ry rz
    limits (-160.0 20.0)
           (-70.0 70.0)
           (-60.0 70.0)
  end
  begin
     id 3 
     name ltibia
     direction 0.34202 -0.939693 0   
     length 7.71059   
     axis 0 0 20   XYZ
    dof rx
    limits (-10.0 170.0)
  end
  begin
     id 4 
     name lfoot
     direction 0.089538 -0.246004 0.965124   
     length 2.19909   
     axis -90 7.62852e-016 20   XYZ
    dof rx rz
    limits (-45.0 90.0)
           (-70.0 20.0)
  end
  begin
     id 5 
     name ltoes
     direction 1.53544e-011 -4.21829e-011 1   
     length 1.10116   
     axis -90 7.62852e-016 20   XYZ
    dof rx
    limits (-90.0 20.0)
  end
  begin
     id 6 
     name rhipjoint
     direction -0.554414 -0.743062 0.374812   
     length 2.4371  
     axis 0 0 0  XYZ 
  end
  begin
     id 7 
     name rfemur
     direction -0.34202 -0.939693 0   
     length 7.47254   
     axis 0 0 -20   XYZ
    dof rx ry rz
    limits (-160.0 20.0)
           (-70.0 70.0)
           (-70.0 60.0)
  end
  begin
     id 8 
     name rtibia
     direction -0.34202 -0.939693 0   
     length 7.65855   
     axis 0 0 -20   XYZ
    dof rx
    limits (-10.0 170.0)
 end
 begin
     id 9 
     name rfoot
     direction -0.133779 -0.367555 0.92033   
     length 2.43006  
     axis -90 -7.62852e-016 -20   XYZ
    dof rx rz
    limits (-45.0 90.0)
           (-20.0 70.0)
  end
  begin
     id 10 
     name rtoes
     direction -1.53563e-011 -4.21889e-011 1   
     length 1.19625   
     axis -90 -7.62852e-016 -20   XYZ
    dof rx
    limits (-90.0 20.0)
  end
  begin
     id 11 
     name lowerback
     direction 0.0249066 0.998043 -0.0573585   
     length 2.08485   
     axis 0 0 0   XYZ
    dof rx ry rz
    limits (-20.0 45.0)
           (-30.0 30.0)
           (-30.0 30.0)
  end
  begin
     id 12 
     name upperback
     direction 0.0237884 0.999673 0.00943178   
     length 2.08515   
     axis 0 0 0   XYZ
    dof rx ry rz
    limits (-20.0 45.0)
           (-30.0 30.0)
           (-30.0 30.0)
  end
  begin
     id 13 
     name thorax
     direction 0.0106671 0.999301 0.0358174   
     length 2.09037   
     axis 0 0 0   XYZ
    dof rx ry rz
    limits (-20.0 45.0)
           (-30.0 30.0)
           (-30.0 30.0)
  end
  begin
     id 14 
     name lowerneck
     direction -0.0580016 0.987052 0.149546   
     length 1.84454   
     axis 0 0 0   XYZ
    dof rx ry rz
    limits (-20.0 45.0)
           (-30.0 30.0)
           (-30.0 30.0)
  end
  begin
     id 15 
     name upperneck
     direction 0.079456 0.981963 -0.171567   
     length 1.88141   
     axis 0 0 0   XYZ
    dof rx ry rz
    limits (-20.0 45.0)
           (-30.0 30.0)
           (-30.0 30.0)
  end
  begin
     id 16
     name head
     direction 0.0262167 0.9967 -0.0768276  
     length 1.89541  
     axis 0 0 0   XYZ
    dof rx ry rz
    limits (-20.0 45.0)
           (-30.0 30.0)
           (-30.0 30.0)
  end
  begin
     id 17 
     name lclavicle
     direction 0.946135 0.322134 -0.0325326  
     length 3.949  
     axis 0 0 0   XYZ
    dof ry rz
    limits (-20.0 10.0)
           (0.0 20.0)
  end
  begin
     id 18 
     name lhumerus
     direction 1 -4.48964e-011 1.94005e-028   
     length 5.10995   
     axis 180 -30 -90   XYZ
    dof rx ry rz
    limits (-60.0 90.0)
           (-90.0 90.0)
           (-90.0 90.0)
  end
  begin
     id 19
     name lradius
     direction 1 -4.48976e-011 2.87852e-027   
     length 3.21207   
     axis 180 -30 -90   XYZ
    dof rx
    limits (-10.0 170.0)
  end
  begin
     id 20
     name lwrist
     direction 1 -4.48963e-011 1.9975e-027   
     length 1.60604   
     axis 2.96054e-016 90 90   XYZ
    dof ry
    limits (-180.0 0.0)
 end
  begin
     id 21 
     name lhand
     direction 1 -4.48919e-011 4.00227e-027   
     length 0.63349   
     axis -2.5488e-015 90 90   XYZ
    dof rx rz
    limits (-90.0 90.0)
           (-45.0 45.0)
  end
  begin
     id 22 
     name lfingers
     direction 1 -4.49037e-011 7.9652e-027   
     length 0.510736   
     axis -5.0975e-015 90 90   XYZ
    dof rx
    limits (0.0 90.0)
  end
  begin
     id 23
     name lthumb
     direction 0.707107 -6.34922e-011 0.707107   
     length 0.733318   
     axis -90 45 -4.48553e-014   XYZ
    dof rx rz
    limits (-45.0 45.0)
           (-45.0 45.0)
  end
  begin
     id 24 
     name rclavicle
     direction -0.940085 0.328911 -0.0897654   
     length 3.93848  
     axis 0 0 0   XYZ 
    dof ry rz
    limits (-10.0 20.0)
           (-20.0 0.0)
  end
  begin
     id 25 
     name rhumerus
     direction -1 -4.48958e-011 3.02044e-027  
     length 5.25109   
     axis 180 30 90   XYZ
    dof rx ry rz
    limits (-90.0 60.0)
           (-90.0 90.0)
           (-90.0 90.0)
  end
  begin
     id 26 
     name rradius
     direction -1 -4.4897e-011 9.78352e-028   
     length 3.28364   
     axis 180 30 90   XYZ
    dof rx
    limits (-10.0 170.0)
  end
  begin
     id 27 
     name rwrist
     direction -1 -4.48943e-011 1.99918e-027   
     length 1.64182   
     axis 2.96054e-016 -90 -90   XYZ
    dof ry
    limits (-180.0 0.0)
  end
  begin
     id 28
     name rhand
     direction -1 -4.49024e-011 3.98478e-027   
     length 0.599745   
     axis -2.5488e-015 -90 -90   XYZ
    dof rx rz
    limits (-90.0 90.0)
           (-45.0 45.0)
  end
  begin
     id 29
     name rfingers
     direction -1 -4.48914e-011 8.00621e-027   
     length 0.48353   
     axis -5.0975e-015 -90 -90   XYZ
    dof rx
    limits (0.0 90.0)
  end
  begin
     id 30
     name rthumb
     direction -0.707107 -6.34992e-011 0.707107   
     length 0.694255   
     axis -90 -45 4.48553e-014   XYZ
    dof rx rz
    limits (-45.0 45.0)
           (-45.0 45.0)
  end
:hierarchy
  begin
    root lhipjoint rhipjoint lowerback
    lhipjoint lfemur
    lfemur ltibia
    ltibia lfoot
    lfoot ltoes
    rhipjoint rfemur
    rfemur rtibia
    rtibia rfoot
    rfoot rtoes
    lowerback upperback
    upperback thorax
    thorax lowerneck lclavicle rclavicle
    lowerneck upperneck
    upperneck head
    lclavicle lhumerus
    lhumerus lradius
    lradius lwrist
    lwrist lhand lthumb
    lhand lfingers
    rclavicle rhumerus
    rhumerus rradius
    rradius rwrist
    rwrist rhand rthumb
    rhand rfingers
  end

#!OML:ASF E:\CV Data\Top Level 1\Subject 1\Session 1\player.ASF
:FULLY-SPECIFIED
:DEGREES
437
root 4.99565 17.2324 -13.514 32.4388 -0.998775 -6.9086
lowerback 19.4372 0.515311 3.20078
upperback 2.27287 1.6328 3.25091
thorax -8.43724 0.721535 1.27687
lowerneck -19.9635 -6.63105 -12.5392
upperneck 11.0155 -7.47861 11.8098
head 7.58739 -3.08184 5.0213
rclavicle 1.68967e-014 3.75703e-014
rhumerus -35.4481 4.18288 -89.099
rradius 53.2249
rwrist -25.4928
rhand -25.9978 3.45796
rfingers 7.12502
rthumb 0.547902 -26.5211
lclavicle 1.68967e-014 3.75703e-014
lhumerus -40.6716 -5.35574 91.5175
lradius 56.0707
lwrist 11.0508
lhand -20.3442 10.4804
lfingers 7.12502
lthumb 6.00749 40.3752
rfemur -52.7651 2.59985 21.9228
rtibia 42.4506
rfoot -21.4974 -9.00281
rtoes -5.83079
lfemur -52.3726 4.49927 -12.2728
ltibia 43.088
lfoot -19.742 1.83852
ltoes -1.49388
438
root 5.00256 17.1738 -13.4841 33.1554 -0.930163 -6.89447
lowerback 19.6458 0.520364 3.19944
upperback 2.26581 1.6474 3.21897
thorax -8.55789 0.726247 1.23803
lowerneck -20.0363 -6.66377 -12.5393
upperneck 10.3883 -7.49896 12.0045
head 7.40631 -3.07616 5.07794
rclavicle 7.55382e-015 1.72943e-014
rhumerus -35.5555 4.04888 -89.1301
rradius 53.6457
rwrist -25.629
rhand -26.1716 3.53577
rfingers 7.12502
rthumb 0.379989 -26.4436
lclavicle 7.55382e-015 1.72943e-014
lhumerus -40.5946 -5.41766 91.5049
lradius 56.3068
lwrist 11.3501
lhand -20.5065 10.3742
lfingers 7.12502
lthumb 5.85084 40.2734
rfemur -54.0766 2.46487 21.9575
rtibia 43.6215
rfoot -21.975 -9.15952
rtoes -6.18786
lfemur -53.7053 4.82113 -12.5194
ltibia 44.1933
lfoot -20.3125 1.80901
ltoes -1.77137
439
root 5.00943 17.1125 -13.4511 33.848 -0.855888 -6.90171
lowerback 19.8668 0.52613 3.22786
upperback 2.2612 1.67011 3.19126
thorax -8.68185 0.733717 1.1845
lowerneck -20.1134 -6.70024 -12.5436
upperneck 9.76251 -7.52135 12.1995
head 7.22786 -3.07224 5.13532
rclavicle -1.04362e-015 1.41634e-014
rhumerus -35.6744 3.90035 -89.1603
rradius 54.0568
rwrist -25.7526
rhand -26.3405 3.65123
rfingers 7.12502
rthumb 0.21689 -26.3284
lclavicle -1.04362e-015 1.41634e-014
lhumerus -40.4985 -5.45977 91.4908
lradius 56.506
lwrist 11.601
lhand -20.6569 10.2423
lfingers 7.12502
lthumb 5.70562 40.1454
rfemur -55.3528 2.35194 22.0144
rtibia 44.8027
rfoot -22.4618 -9.34229
rtoes -6.52334
lfemur -55.0121 5.15375 -12.7523
ltibia 45.3257
lfoot -20.8969 1.76073
ltoes -1.97947
440
root 5.01608 17.0494 -13.4142 34.4894 -0.760807 -6.92135
lowerback 20.1218 0.52637 3.28621
upperback 2.26729 1.69411 3.17076
thorax -8.81189 0.740664 1.12105
lowerneck -20.1926 -6.74397 -12.557
upperneck 9.13613 -7.54978 12.3982
head 7.05186 -3.07199 5.19483
rclavicle -2.78299e-015 1.5704e-014
rhumerus -35.788 3.73951 -89.1867
rradius 54.4407
rwrist -25.8591
rhand -26.5149 3.75486
rfingers 7.12502
rthumb 0.048461 -26.2249
lclavicle -2.78299e-015 1.5704e-014
lhumerus -40.3792 -5.47687 91.4774
lradius 56.6661
lwrist 11.7873
lhand -20.7906 10.1099
lfingers 7.12502
lthumb 5.57649 40.0165
rfemur -56.5547 2.25225 22.0916
rtibia 45.9932
rfoot -22.9739 -9.56639
rtoes -6.83996
lfemur -56.2606 5.48309 -12.9707
ltibia 46.4792
lfoot -21.4946 1.6828
ltoes -2.15239
441
root 5.02246 16.9853 -13.3722 35.045 -0.639672 -6.94672
lowerback 20.4486 0.514663 3.37291
upperback 2.28637 1.71305 3.15791
thorax -8.96593 0.743841 1.05056
lowerneck -20.289 -6.78946 -12.5714
upperneck 8.5284 -7.57718 12.5903
head 6.88516 -3.07185 5.25265
rclavicle 3.57812e-015 1.80894e-014
rhumerus -35.906 3.58301 -89.2098
rradius 54.7959
rwrist -25.9551
rhand -26.6698 3.86269
rfingers 7.12502
rthumb -0.101213 -26.117
lclavicle 3.57812e-015 1.80894e-014
lhumerus -40.2537 -5.46002 91.4646
lradius 56.79
lwrist 11.906
lhand -20.9096 9.99076
lfingers 7.12502
lthumb 5.46159 39.9004
rfemur -57.6329 2.15633 22.1882
rtibia 47.1903
rfoot -23.5264 -9.83038
rtoes -7.11245
lfemur -57.3977 5.79766 -13.1733
ltibia 47.635
lfoot -22.1011 1.57585
ltoes -2.34213
442
root 5.02829 16.919 -13.3261 35.5407 -0.504588 -6.98114
lowerback 20.8225 0.499162 3.47141
upperback 2.30713 1.73387 3.1554
thorax -9.14351 0.747138 0.983687
lowerneck -20.3773 -6.83686 -12.5935
upperneck 7.92974 -7.60521 12.782
head 6.72126 -3.07318 5.31196
rclavicle -2.55438e-014 -1.95306e-014
rhumerus -36.0299 3.43678 -89.2273
rradius 55.1091
rwrist -26.0545
rhand -26.806 3.95355
rfingers 7.12502
rthumb -0.23268 -26.0261
lclavicle -2.55438e-014 -1.95306e-014
lhumerus -40.1323 -5.40555 91.4571
lradius 56.8763
lwrist 11.9562
lhand -21.014 9.88477
lfingers 7.12502
lthumb 5.36084 39.797
rfemur -58.6273 2.06981 22.3051
rtibia 48.4016
rfoot -24.1083 -10.121
rtoes -7.32184
lfemur -58.4571 6.10388 -13.3568
ltibia 48.7945
lfoot -22.6971 1.43256
ltoes -2.51741
